# xmcd CD database file
#
# Track frame offsets:
#	150
#	43870
#	56379
#	75777
#	88851
#	98073
#	125522
#	137232
#	158843
#	191746
#	202103
#	210928
#	235099
#	247145
#
# Disc length: 3509 seconds
#
# Revision: 0
# Processed by: cddbd v1.5.1PL2 Copyright (c) Steve Scherf et al.
# Submitted via: CDex 1.51
#
DISCID=bd0db30e
DTITLE=Dave Brubeck - Tonight Only Plus (McRae)
DYEAR=1960
DGENRE=Jazz
TTITLE0=Melancha
TTITLE1=Weep No More
TTITLE2=Talking
TTITLE3=Briar Bush
TTITLE4=Paradiddle Joe
TTITLE5=Late Lament
TTITLE6=Strange Meadowlark
TTITLE7=Tristesse
TTITLE8=Tonight Only
TTITLE9=Take Five (Single)
TTITLE10=Raggy Waltz (Single)
TTITLE11=Hey Ho, Anybody Home (w Bill Smith)
TTITLE12=Offshoot (w Bill Smith)
TTITLE13=Yet We Shall Be Merry (w Bill Smith)
EXTD=YEAR: 1960
EXTT0=
EXTT1=
EXTT2=
EXTT3=
EXTT4=
EXTT5=
EXTT6=
EXTT7=
EXTT8=
EXTT9=
EXTT10=
EXTT11=
EXTT12=
EXTT13=
PLAYORDER=
